<svg xmlns="http://www.w3.org/2000/svg" version="1.1" xmlns:xlink="http://www.w3.org/1999/xlink" xmlns:svgjs="http://svgjs.dev/svgjs" width="2000" height="333" viewBox="0 0 2000 333"><g transform="matrix(1,0,0,1,-1.2121212121212466,-0.704883147465722)"><svg viewBox="0 0 396 66" data-background-color="#ffffff" preserveAspectRatio="xMidYMid meet" height="333" width="2000" xmlns="http://www.w3.org/2000/svg" xmlns:xlink="http://www.w3.org/1999/xlink"><g id="tight-bounds" transform="matrix(1,0,0,1,0.2400000000000091,0.13970656976798068)"><svg viewBox="0 0 395.52 65.72058686046405" height="65.72058686046405" width="395.52"><g><svg viewBox="0 0 522.4469638627957 86.81108684397904" height="65.72058686046405" width="395.52"><g><rect width="6.364911137279999" height="70.93216335078532" x="412.18207104" y="7.939461746596862" fill="#a855f7" opacity="1" stroke-width="0" stroke="transparent" fill-opacity="1" class="rect-qz-0" data-fill-palette-color="primary" rx="1%" id="qz-0" data-palette-color="#a855f7"></rect></g><g transform="matrix(1,0,0,1,0,8.115909914136125)"><svg viewBox="0 0 395.52 70.57926701570679" height="70.57926701570679" width="395.52"><g id="textblocktransform"><svg viewBox="0 0 395.52 70.57926701570679" height="70.57926701570679" width="395.52" id="textblock"><g><svg viewBox="0 0 395.52 70.57926701570679" height="70.57926701570679" width="395.52"><g transform="matrix(1,0,0,1,0,0)"><svg width="395.52" viewBox="3.05 -40.5 226.26999999999998 40.9" height="70.57926701570679" data-palette-color="#a855f7"><g class="wordmark-text-0" data-fill-palette-color="primary" id="text-0"><path d="M7.65 0L3.05 0 3.8-40.5 9.35-40.5 16.5-7.65 23.7-40.5 29.2-40.5 29.95 0 25.4 0 24.95-29.4 18.1 0 14.9 0 8.1-29.4 7.65 0ZM43.7 0.4L43.7 0.4Q40.3 0.4 38.45-0.93 36.6-2.25 35.87-4.83 35.15-7.4 35.15-11.15L35.15-11.15 35.15-17.75Q35.15-21.6 35.9-24.15 36.65-26.7 38.52-28 40.4-29.3 43.7-29.3L43.7-29.3Q47.35-29.3 49.07-27.8 50.8-26.3 51.35-23.48 51.9-20.65 51.9-16.7L51.9-16.7 51.9-14.35 40.5-14.35 40.5-8.55Q40.5-6.8 40.82-5.7 41.15-4.6 41.87-4.08 42.6-3.55 43.75-3.55L43.75-3.55Q44.95-3.55 45.57-4.13 46.2-4.7 46.42-5.78 46.65-6.85 46.65-8.3L46.65-8.3 46.65-10.05 51.85-10.05 51.85-8.95Q51.85-4.6 50-2.1 48.15 0.4 43.7 0.4ZM40.5-18.8L40.5-17.25 46.65-17.25 46.65-19.85Q46.65-21.65 46.45-22.88 46.25-24.1 45.62-24.73 45-25.35 43.65-25.35L43.65-25.35Q42.35-25.35 41.67-24.75 41-24.15 40.75-22.73 40.5-21.3 40.5-18.8L40.5-18.8ZM61.95 0.4L61.95 0.4Q60.25 0.4 58.95-0.58 57.65-1.55 56.9-3.08 56.15-4.6 56.15-6.3L56.15-6.3Q56.15-9 57.05-10.85 57.95-12.7 59.52-13.98 61.09-15.25 63.17-16.2 65.25-17.15 67.55-18.05L67.55-18.05 67.55-20.1Q67.55-21.85 67.34-23 67.15-24.15 66.52-24.73 65.9-25.3 64.65-25.3L64.65-25.3Q63.55-25.3 62.87-24.8 62.2-24.3 61.9-23.38 61.59-22.45 61.59-21.2L61.59-21.2 61.59-19.75 56.3-19.95Q56.4-24.75 58.5-27.03 60.59-29.3 65-29.3L65-29.3Q69.3-29.3 71.09-26.95 72.9-24.6 72.9-20.15L72.9-20.15 72.9-6.95Q72.9-5.6 72.97-4.35 73.05-3.1 73.17-2.02 73.3-0.95 73.4 0L73.4 0 68.5 0Q68.34-0.8 68.12-2.02 67.9-3.25 67.8-4.25L67.8-4.25Q67.3-2.55 65.87-1.07 64.45 0.4 61.95 0.4ZM64.05-4.2L64.05-4.2Q64.84-4.2 65.55-4.65 66.25-5.1 66.8-5.68 67.34-6.25 67.55-6.6L67.55-6.6 67.55-14.8Q66.3-14.1 65.2-13.4 64.09-12.7 63.27-11.93 62.45-11.15 61.97-10.18 61.5-9.2 61.5-7.95L61.5-7.95Q61.5-6.2 62.15-5.2 62.8-4.2 64.05-4.2ZM83.89 0L78.54 0 78.54-40.5 83.89-40.5 83.89 0Z" fill="#a855f7" data-fill-palette-color="primary"></path><path d="M102.99 0L98.39 0 99.14-40.5 104.69-40.5 111.84-7.65 119.04-40.5 124.54-40.5 125.29 0 120.74 0 120.29-29.4 113.44 0 110.24 0 103.44-29.4 102.99 0ZM136.74 0L131.39 0 131.39-28.9 136.74-28.9 136.74 0ZM136.74-33.2L131.39-33.2 131.39-38.8 136.74-38.8 136.74-33.2ZM149.18 0.4L149.18 0.4Q145.63 0.4 143.48-1.83 141.33-4.05 141.03-7.7L141.03-7.7 145.48-9.05Q145.88-6.3 146.83-4.93 147.78-3.55 149.63-3.55L149.63-3.55Q151.08-3.55 151.83-4.38 152.58-5.2 152.58-6.6L152.58-6.6Q152.58-7.85 152.03-8.85 151.48-9.85 150.23-10.9L150.23-10.9 145.28-15.15Q143.78-16.45 142.76-18.05 141.73-19.65 141.73-22.2L141.73-22.2Q141.73-24.5 142.66-26.08 143.58-27.65 145.26-28.48 146.93-29.3 149.18-29.3L149.18-29.3Q152.63-29.3 154.46-27.08 156.28-24.85 156.53-21.7L156.53-21.7 152.93-20.35Q152.73-21.85 152.33-22.98 151.93-24.1 151.23-24.73 150.53-25.35 149.38-25.35L149.38-25.35Q148.08-25.35 147.31-24.48 146.53-23.6 146.53-22.4L146.53-22.4Q146.53-21.65 146.86-20.93 147.18-20.2 147.98-19.5L147.98-19.5 153.08-14.8Q154.13-13.85 155.06-12.75 155.98-11.65 156.58-10.25 157.18-8.85 157.18-7L157.18-7Q157.18-4.55 156.18-2.9 155.18-1.25 153.38-0.43 151.58 0.4 149.18 0.4ZM167.88 0.4L167.88 0.4Q164.33 0.4 162.18-1.83 160.03-4.05 159.73-7.7L159.73-7.7 164.18-9.05Q164.58-6.3 165.53-4.93 166.48-3.55 168.33-3.55L168.33-3.55Q169.78-3.55 170.53-4.38 171.28-5.2 171.28-6.6L171.28-6.6Q171.28-7.85 170.73-8.85 170.18-9.85 168.93-10.9L168.93-10.9 163.98-15.15Q162.48-16.45 161.46-18.05 160.43-19.65 160.43-22.2L160.43-22.2Q160.43-24.5 161.36-26.08 162.28-27.65 163.96-28.48 165.63-29.3 167.88-29.3L167.88-29.3Q171.33-29.3 173.16-27.08 174.98-24.85 175.23-21.7L175.23-21.7 171.63-20.35Q171.43-21.85 171.03-22.98 170.63-24.1 169.93-24.73 169.23-25.35 168.08-25.35L168.08-25.35Q166.78-25.35 166.01-24.48 165.23-23.6 165.23-22.4L165.23-22.4Q165.23-21.65 165.56-20.93 165.88-20.2 166.68-19.5L166.68-19.5 171.78-14.8Q172.83-13.85 173.76-12.75 174.68-11.65 175.28-10.25 175.88-8.85 175.88-7L175.88-7Q175.88-4.55 174.88-2.9 173.88-1.25 172.08-0.43 170.28 0.4 167.88 0.4ZM185.58 0L180.23 0 180.23-28.9 185.58-28.9 185.58 0ZM185.58-33.2L180.23-33.2 180.23-38.8 185.58-38.8 185.58-33.2ZM199.28 0.4L199.28 0.4Q196.08 0.4 194.23-0.9 192.38-2.2 191.6-4.6 190.83-7 190.83-10.25L190.83-10.25 190.83-18.65Q190.83-21.9 191.6-24.3 192.38-26.7 194.23-28 196.08-29.3 199.28-29.3L199.28-29.3Q202.48-29.3 204.3-28 206.13-26.7 206.9-24.3 207.68-21.9 207.68-18.65L207.68-18.65 207.68-10.25Q207.68-7 206.9-4.6 206.13-2.2 204.3-0.9 202.48 0.4 199.28 0.4ZM199.28-3.55L199.28-3.55Q200.83-3.55 201.45-4.45 202.08-5.35 202.2-6.83 202.33-8.3 202.33-9.9L202.33-9.9 202.33-18.95Q202.33-20.6 202.2-22.05 202.08-23.5 201.45-24.43 200.83-25.35 199.28-25.35L199.28-25.35Q197.73-25.35 197.08-24.43 196.43-23.5 196.3-22.05 196.18-20.6 196.18-18.95L196.18-18.95 196.18-9.9Q196.18-8.3 196.3-6.83 196.43-5.35 197.08-4.45 197.73-3.55 199.28-3.55ZM217.92 0L212.57 0 212.57-28.9 217.92-28.9 217.92-26.05Q219.37-27.4 221.12-28.35 222.87-29.3 224.97-29.3L224.97-29.3Q226.72-29.3 227.65-28.4 228.57-27.5 228.95-26.15 229.32-24.8 229.32-23.4L229.32-23.4 229.32 0 223.97 0 223.97-21.85Q223.97-23.4 223.52-24.25 223.07-25.1 221.67-25.1L221.67-25.1Q220.77-25.1 219.8-24.58 218.82-24.05 217.92-23.3L217.92-23.3 217.92 0Z" fill="#a62a6c" data-fill-palette-color="secondary"></path></g></svg></g></svg></g></svg></g></svg></g><g transform="matrix(1,0,0,1,435.20905321728,0)"><svg viewBox="0 0 87.23791064551567 86.81108684397904" height="86.81108684397904" width="87.23791064551567"><g><svg xmlns:x="http://ns.adobe.com/Extensibility/1.0/" xmlns:i="http://ns.adobe.com/AdobeIllustrator/10.0/" xmlns:graph="http://ns.adobe.com/Graphs/1.0/" xmlns="http://www.w3.org/2000/svg" xmlns:xlink="http://www.w3.org/1999/xlink" version="1.1" x="0" y="0" viewBox="0 0 97.47691959926112 97" style="enable-background:new 0 0 100 100;" xml:space="preserve" height="86.81108684397904" width="87.23791064551567" class="icon-icon-0" data-fill-palette-color="accent" id="icon-0"><g i:extraneous="self" transform="matrix(1,0,0,1,0,0)" fill="#a855f7" data-fill-palette-color="accent"><g fill="#a855f7" data-fill-palette-color="accent"><path d="M73.1 54.5l-1.2-15.5h3.8c0.6 0 1.1-0.6 1.1-1.2-0.3-2.3-0.9-7.4-1.9-11.6-1.1-4.4-3.5-8.8-6.1-10.5-0.9-0.6-2.1 0.1-2.1 1.2l0 16.8c0 3-0.1 6-0.4 9l-0.9 11.7C65.3 56.5 73.3 56.8 73.1 54.5z" fill="#a855f7" data-fill-palette-color="accent"></path><path d="M52.7 34.7l-1.5 19.7c-0.2 2.2 7.8 2.2 7.7 0l-1.5-19.7c2.7-1 4.6-3.6 4.5-6.7l-0.4-10.5c0-0.7-0.6-1.2-1.3-1.2H60c-0.7 0-1.3 0.6-1.3 1.3L59 27.8c0 0.7-0.6 1.3-1.3 1.3-0.7 0-1.3-0.6-1.3-1.3l-0.1-10.2c0-0.7-0.6-1.3-1.3-1.3h-0.2c-0.7 0-1.3 0.6-1.3 1.3l-0.1 10.2c0 0.7-0.6 1.3-1.3 1.3-0.7 0-1.3-0.6-1.3-1.3l0.3-10.1c0-0.7-0.6-1.3-1.3-1.3h-0.2c-0.7 0-1.2 0.5-1.3 1.2l-0.4 10.5C48.1 31.1 50 33.8 52.7 34.7z" fill="#a855f7" data-fill-palette-color="accent"></path><path d="M97 62.5c-0.7-2.2-2.2-4-4.3-5.1V17.9C92.8 9.7 86.1 3 77.9 3H47.1c-8.2 0-14.9 6.7-14.9 14.9v39.4c-1.4 0.2-2.8 0.5-4.1 1L24 59.6v-0.3c0-1.6-1.3-3-3-3H5.5c-1.6 0-3 1.3-3 3v34.6c0 1.6 1.3 3 3 3h15.6c1.6 0 3-1.3 3-3v-0.2l30.7 3.2c0.7 0.1 1.4 0.1 2.1 0.1 4.6 0 9.1-1.6 12.7-4.5l24.5-19.9C97.1 70.2 98.2 66.1 97 62.5zM47.1 9h30.7c4.9 0 8.9 4 8.9 8.9v38.4c-0.6 0.1-1.3 0.3-1.9 0.5l-21.8 8.5c-0.7-0.6-1.6-1.1-2.6-1.4l-17.4-5.7c-1.6-0.5-3.3-0.9-5-1V17.9C38.2 13 42.2 9 47.1 9zM18.1 90.9H8.5V62.3h9.6V90.9zM90.3 68L65.9 87.8c-3 2.4-6.7 3.5-10.5 3.1L24 87.7V65.9l6-2c3.6-1.2 7.7-1.2 11.3 0l17.4 5.7c0.6 0.2 0.8 0.6 0.9 0.8 0.1 0.2 0.3 0.7 0.1 1.2-0.2 0.7-0.9 1.1-1.6 1.1l-18.6-1.7c-1.6-0.2-3.1 1.1-3.2 2.7-0.2 1.6 1.1 3.1 2.7 3.2l18.6 1.7c0.2 0 0.5 0 0.7 0 3.2 0 6.1-2 7.1-5.1 0.3-0.9 0.5-1.9 0.4-2.8l21.4-8.3c0.8-0.3 1.8-0.3 2.6 0.1 0.8 0.4 1.4 1.1 1.7 1.9C91.8 65.7 91.4 67.1 90.3 68z" fill="#a855f7" data-fill-palette-color="accent"></path></g></g></svg></g></svg></g></svg></g><defs></defs></svg><rect width="395.52" height="65.72058686046405" fill="none" stroke="none" visibility="hidden"></rect></g></svg></g></svg>